<?xml version="1.0" encoding="UTF-8"?>
<svg xmlns="http://www.w3.org/2000/svg" xmlns:xlink="http://www.w3.org/1999/xlink" width="225.56pt" height="123pt" viewBox="0 0 225.56 123" version="1.2">
<g id="surface1">
<path style="fill:none;stroke-width:11.2751;stroke-linecap:round;stroke-linejoin:round;stroke:rgb(0%,0%,0%);stroke-opacity:1;stroke-miterlimit:10;" d="M 102.778224 102.478733 L 444.459069 102.478733 " transform="matrix(0.0998053,0,0,-0.0998053,0,122.880265)"/>
<path style="fill:none;stroke-width:11.2751;stroke-linecap:round;stroke-linejoin:round;stroke:rgb(0%,0%,0%);stroke-opacity:1;stroke-miterlimit:10;" d="M 102.778224 102.478733 L 102.778224 444.159578 " transform="matrix(0.0998053,0,0,-0.0998053,0,122.880265)"/>
<path style="fill:none;stroke-width:11.2751;stroke-linecap:round;stroke-linejoin:round;stroke:rgb(0%,0%,0%);stroke-opacity:1;stroke-miterlimit:10;" d="M 444.459069 102.478733 L 786.139913 102.478733 " transform="matrix(0.0998053,0,0,-0.0998053,0,122.880265)"/>
<path style="fill:none;stroke-width:11.2751;stroke-linecap:round;stroke-linejoin:round;stroke:rgb(0%,0%,0%);stroke-opacity:1;stroke-miterlimit:10;" d="M 444.459069 102.478733 L 444.459069 444.159578 " transform="matrix(0.0998053,0,0,-0.0998053,0,122.880265)"/>
<path style="fill:none;stroke-width:11.2751;stroke-linecap:round;stroke-linejoin:round;stroke:rgb(0%,0%,0%);stroke-opacity:1;stroke-miterlimit:10;" d="M 786.139913 102.478733 L 1127.820757 102.478733 " transform="matrix(0.0998053,0,0,-0.0998053,0,122.880265)"/>
<path style="fill:none;stroke-width:11.2751;stroke-linecap:round;stroke-linejoin:round;stroke:rgb(0%,0%,0%);stroke-opacity:1;stroke-miterlimit:10;" d="M 786.139913 102.478733 L 786.139913 444.159578 " transform="matrix(0.0998053,0,0,-0.0998053,0,122.880265)"/>
<path style="fill:none;stroke-width:11.2751;stroke-linecap:round;stroke-linejoin:round;stroke:rgb(0%,0%,0%);stroke-opacity:1;stroke-miterlimit:10;" d="M 1127.820757 102.478733 L 1469.501602 102.478733 " transform="matrix(0.0998053,0,0,-0.0998053,0,122.880265)"/>
<path style="fill:none;stroke-width:11.2751;stroke-linecap:round;stroke-linejoin:round;stroke:rgb(0%,0%,0%);stroke-opacity:1;stroke-miterlimit:10;" d="M 1127.820757 102.478733 L 1127.820757 444.159578 " transform="matrix(0.0998053,0,0,-0.0998053,0,122.880265)"/>
<path style="fill:none;stroke-width:11.2751;stroke-linecap:round;stroke-linejoin:round;stroke:rgb(0%,0%,0%);stroke-opacity:1;stroke-miterlimit:10;" d="M 1469.501602 102.478733 L 1811.143307 102.478733 " transform="matrix(0.0998053,0,0,-0.0998053,0,122.880265)"/>
<path style="fill:none;stroke-width:11.2751;stroke-linecap:round;stroke-linejoin:round;stroke:rgb(0%,0%,0%);stroke-opacity:1;stroke-miterlimit:10;" d="M 1469.501602 102.478733 L 1469.501602 444.159578 " transform="matrix(0.0998053,0,0,-0.0998053,0,122.880265)"/>
<path style="fill:none;stroke-width:11.2751;stroke-linecap:round;stroke-linejoin:round;stroke:rgb(0%,0%,0%);stroke-opacity:1;stroke-miterlimit:10;" d="M 1811.143307 102.478733 L 2152.824152 102.478733 " transform="matrix(0.0998053,0,0,-0.0998053,0,122.880265)"/>
<path style="fill:none;stroke-width:11.2751;stroke-linecap:round;stroke-linejoin:round;stroke:rgb(0%,0%,0%);stroke-opacity:1;stroke-miterlimit:10;" d="M 1811.143307 102.478733 L 1811.143307 444.159578 " transform="matrix(0.0998053,0,0,-0.0998053,0,122.880265)"/>
<path style="fill:none;stroke-width:11.2751;stroke-linecap:round;stroke-linejoin:round;stroke:rgb(0%,0%,0%);stroke-opacity:1;stroke-miterlimit:10;" d="M 2152.824152 102.478733 L 2152.824152 444.159578 " transform="matrix(0.0998053,0,0,-0.0998053,0,122.880265)"/>
<path style="fill:none;stroke-width:11.2751;stroke-linecap:round;stroke-linejoin:round;stroke:rgb(0%,0%,0%);stroke-opacity:1;stroke-miterlimit:10;" d="M 102.778224 444.159578 L 444.459069 444.159578 " transform="matrix(0.0998053,0,0,-0.0998053,0,122.880265)"/>
<path style="fill:none;stroke-width:11.2751;stroke-linecap:round;stroke-linejoin:round;stroke:rgb(0%,0%,0%);stroke-opacity:1;stroke-miterlimit:10;" d="M 102.778224 444.159578 L 102.778224 785.840422 " transform="matrix(0.0998053,0,0,-0.0998053,0,122.880265)"/>
<path style="fill:none;stroke-width:11.2751;stroke-linecap:round;stroke-linejoin:round;stroke:rgb(0%,0%,0%);stroke-opacity:1;stroke-miterlimit:10;" d="M 444.459069 444.159578 L 786.139913 444.159578 " transform="matrix(0.0998053,0,0,-0.0998053,0,122.880265)"/>
<path style="fill:none;stroke-width:11.2751;stroke-linecap:round;stroke-linejoin:round;stroke:rgb(0%,0%,0%);stroke-opacity:1;stroke-miterlimit:10;" d="M 444.459069 444.159578 L 444.459069 785.840422 " transform="matrix(0.0998053,0,0,-0.0998053,0,122.880265)"/>
<path style="fill:none;stroke-width:11.2751;stroke-linecap:round;stroke-linejoin:round;stroke:rgb(0%,0%,0%);stroke-opacity:1;stroke-miterlimit:10;" d="M 786.139913 444.159578 L 1127.820757 444.159578 " transform="matrix(0.0998053,0,0,-0.0998053,0,122.880265)"/>
<path style="fill:none;stroke-width:11.2751;stroke-linecap:round;stroke-linejoin:round;stroke:rgb(0%,0%,0%);stroke-opacity:1;stroke-miterlimit:10;" d="M 786.139913 444.159578 L 786.139913 785.840422 " transform="matrix(0.0998053,0,0,-0.0998053,0,122.880265)"/>
<path style="fill:none;stroke-width:11.2751;stroke-linecap:round;stroke-linejoin:round;stroke:rgb(0%,0%,0%);stroke-opacity:1;stroke-miterlimit:10;" d="M 1127.820757 444.159578 L 1469.501602 444.159578 " transform="matrix(0.0998053,0,0,-0.0998053,0,122.880265)"/>
<path style="fill:none;stroke-width:11.2751;stroke-linecap:round;stroke-linejoin:round;stroke:rgb(0%,0%,0%);stroke-opacity:1;stroke-miterlimit:10;" d="M 1127.820757 444.159578 L 1127.820757 785.840422 " transform="matrix(0.0998053,0,0,-0.0998053,0,122.880265)"/>
<path style="fill:none;stroke-width:11.2751;stroke-linecap:round;stroke-linejoin:round;stroke:rgb(0%,0%,0%);stroke-opacity:1;stroke-miterlimit:10;" d="M 1469.501602 444.159578 L 1811.143307 444.159578 " transform="matrix(0.0998053,0,0,-0.0998053,0,122.880265)"/>
<path style="fill:none;stroke-width:11.2751;stroke-linecap:round;stroke-linejoin:round;stroke:rgb(0%,0%,0%);stroke-opacity:1;stroke-miterlimit:10;" d="M 1469.501602 444.159578 L 1469.501602 785.840422 " transform="matrix(0.0998053,0,0,-0.0998053,0,122.880265)"/>
<path style="fill:none;stroke-width:11.2751;stroke-linecap:round;stroke-linejoin:round;stroke:rgb(0%,0%,0%);stroke-opacity:1;stroke-miterlimit:10;" d="M 1811.143307 444.159578 L 2152.824152 444.159578 " transform="matrix(0.0998053,0,0,-0.0998053,0,122.880265)"/>
<path style="fill:none;stroke-width:11.2751;stroke-linecap:round;stroke-linejoin:round;stroke:rgb(0%,0%,0%);stroke-opacity:1;stroke-miterlimit:10;" d="M 1811.143307 444.159578 L 1811.143307 785.840422 " transform="matrix(0.0998053,0,0,-0.0998053,0,122.880265)"/>
<path style="fill:none;stroke-width:11.2751;stroke-linecap:round;stroke-linejoin:round;stroke:rgb(0%,0%,0%);stroke-opacity:1;stroke-miterlimit:10;" d="M 2152.824152 444.159578 L 2152.824152 785.840422 " transform="matrix(0.0998053,0,0,-0.0998053,0,122.880265)"/>
<path style="fill:none;stroke-width:11.2751;stroke-linecap:round;stroke-linejoin:round;stroke:rgb(0%,0%,0%);stroke-opacity:1;stroke-miterlimit:10;" d="M 102.778224 785.840422 L 444.459069 785.840422 " transform="matrix(0.0998053,0,0,-0.0998053,0,122.880265)"/>
<path style="fill:none;stroke-width:11.2751;stroke-linecap:round;stroke-linejoin:round;stroke:rgb(0%,0%,0%);stroke-opacity:1;stroke-miterlimit:10;" d="M 102.778224 785.840422 L 102.778224 1127.521267 " transform="matrix(0.0998053,0,0,-0.0998053,0,122.880265)"/>
<path style="fill:none;stroke-width:11.2751;stroke-linecap:round;stroke-linejoin:round;stroke:rgb(0%,0%,0%);stroke-opacity:1;stroke-miterlimit:10;" d="M 444.459069 785.840422 L 786.139913 785.840422 " transform="matrix(0.0998053,0,0,-0.0998053,0,122.880265)"/>
<path style="fill:none;stroke-width:11.2751;stroke-linecap:round;stroke-linejoin:round;stroke:rgb(0%,0%,0%);stroke-opacity:1;stroke-miterlimit:10;" d="M 444.459069 785.840422 L 444.459069 1127.521267 " transform="matrix(0.0998053,0,0,-0.0998053,0,122.880265)"/>
<path style="fill:none;stroke-width:11.2751;stroke-linecap:round;stroke-linejoin:round;stroke:rgb(0%,0%,0%);stroke-opacity:1;stroke-miterlimit:10;" d="M 786.139913 785.840422 L 1127.820757 785.840422 " transform="matrix(0.0998053,0,0,-0.0998053,0,122.880265)"/>
<path style="fill:none;stroke-width:11.2751;stroke-linecap:round;stroke-linejoin:round;stroke:rgb(0%,0%,0%);stroke-opacity:1;stroke-miterlimit:10;" d="M 786.139913 785.840422 L 786.139913 1127.521267 " transform="matrix(0.0998053,0,0,-0.0998053,0,122.880265)"/>
<path style="fill:none;stroke-width:11.2751;stroke-linecap:round;stroke-linejoin:round;stroke:rgb(0%,0%,0%);stroke-opacity:1;stroke-miterlimit:10;" d="M 1127.820757 785.840422 L 1469.501602 785.840422 " transform="matrix(0.0998053,0,0,-0.0998053,0,122.880265)"/>
<path style="fill:none;stroke-width:11.2751;stroke-linecap:round;stroke-linejoin:round;stroke:rgb(0%,0%,0%);stroke-opacity:1;stroke-miterlimit:10;" d="M 1127.820757 785.840422 L 1127.820757 1127.521267 " transform="matrix(0.0998053,0,0,-0.0998053,0,122.880265)"/>
<path style="fill:none;stroke-width:11.2751;stroke-linecap:round;stroke-linejoin:round;stroke:rgb(0%,0%,0%);stroke-opacity:1;stroke-miterlimit:10;" d="M 1469.501602 785.840422 L 1811.143307 785.840422 " transform="matrix(0.0998053,0,0,-0.0998053,0,122.880265)"/>
<path style="fill:none;stroke-width:11.2751;stroke-linecap:round;stroke-linejoin:round;stroke:rgb(0%,0%,0%);stroke-opacity:1;stroke-miterlimit:10;" d="M 1469.501602 785.840422 L 1469.501602 1127.521267 " transform="matrix(0.0998053,0,0,-0.0998053,0,122.880265)"/>
<path style="fill:none;stroke-width:11.2751;stroke-linecap:round;stroke-linejoin:round;stroke:rgb(0%,0%,0%);stroke-opacity:1;stroke-miterlimit:10;" d="M 1811.143307 785.840422 L 2152.824152 785.840422 " transform="matrix(0.0998053,0,0,-0.0998053,0,122.880265)"/>
<path style="fill:none;stroke-width:11.2751;stroke-linecap:round;stroke-linejoin:round;stroke:rgb(0%,0%,0%);stroke-opacity:1;stroke-miterlimit:10;" d="M 1811.143307 785.840422 L 1811.143307 1127.521267 " transform="matrix(0.0998053,0,0,-0.0998053,0,122.880265)"/>
<path style="fill:none;stroke-width:11.2751;stroke-linecap:round;stroke-linejoin:round;stroke:rgb(0%,0%,0%);stroke-opacity:1;stroke-miterlimit:10;" d="M 2152.824152 785.840422 L 2152.824152 1127.521267 " transform="matrix(0.0998053,0,0,-0.0998053,0,122.880265)"/>
<path style="fill:none;stroke-width:11.2751;stroke-linecap:round;stroke-linejoin:round;stroke:rgb(0%,0%,0%);stroke-opacity:1;stroke-miterlimit:10;" d="M 102.778224 1127.521267 L 444.459069 1127.521267 " transform="matrix(0.0998053,0,0,-0.0998053,0,122.880265)"/>
<path style="fill:none;stroke-width:11.2751;stroke-linecap:round;stroke-linejoin:round;stroke:rgb(0%,0%,0%);stroke-opacity:1;stroke-miterlimit:10;" d="M 444.459069 1127.521267 L 786.139913 1127.521267 " transform="matrix(0.0998053,0,0,-0.0998053,0,122.880265)"/>
<path style="fill:none;stroke-width:11.2751;stroke-linecap:round;stroke-linejoin:round;stroke:rgb(0%,0%,0%);stroke-opacity:1;stroke-miterlimit:10;" d="M 786.139913 1127.521267 L 1127.820757 1127.521267 " transform="matrix(0.0998053,0,0,-0.0998053,0,122.880265)"/>
<path style="fill:none;stroke-width:11.2751;stroke-linecap:round;stroke-linejoin:round;stroke:rgb(0%,0%,0%);stroke-opacity:1;stroke-miterlimit:10;" d="M 1127.820757 1127.521267 L 1469.501602 1127.521267 " transform="matrix(0.0998053,0,0,-0.0998053,0,122.880265)"/>
<path style="fill:none;stroke-width:11.2751;stroke-linecap:round;stroke-linejoin:round;stroke:rgb(0%,0%,0%);stroke-opacity:1;stroke-miterlimit:10;" d="M 1469.501602 1127.521267 L 1811.143307 1127.521267 " transform="matrix(0.0998053,0,0,-0.0998053,0,122.880265)"/>
<path style="fill:none;stroke-width:11.2751;stroke-linecap:round;stroke-linejoin:round;stroke:rgb(0%,0%,0%);stroke-opacity:1;stroke-miterlimit:10;" d="M 1811.143307 1127.521267 L 2152.824152 1127.521267 " transform="matrix(0.0998053,0,0,-0.0998053,0,122.880265)"/>
<path style="fill:none;stroke-width:90.2008;stroke-linecap:round;stroke-linejoin:round;stroke:rgb(100%,0%,0%);stroke-opacity:1;stroke-miterlimit:10;" d="M 102.778224 102.478733 L 102.778224 102.478733 " transform="matrix(0.0998053,0,0,-0.0998053,0,122.880265)"/>
<path style="fill:none;stroke-width:90.2008;stroke-linecap:round;stroke-linejoin:round;stroke:rgb(100%,0%,0%);stroke-opacity:1;stroke-miterlimit:10;" d="M 444.459069 102.478733 L 444.459069 102.478733 " transform="matrix(0.0998053,0,0,-0.0998053,0,122.880265)"/>
<path style="fill:none;stroke-width:90.2008;stroke-linecap:round;stroke-linejoin:round;stroke:rgb(100%,0%,0%);stroke-opacity:1;stroke-miterlimit:10;" d="M 786.139913 102.478733 L 786.139913 102.478733 " transform="matrix(0.0998053,0,0,-0.0998053,0,122.880265)"/>
<path style="fill:none;stroke-width:90.2008;stroke-linecap:round;stroke-linejoin:round;stroke:rgb(100%,0%,0%);stroke-opacity:1;stroke-miterlimit:10;" d="M 1127.820757 102.478733 L 1127.820757 102.478733 " transform="matrix(0.0998053,0,0,-0.0998053,0,122.880265)"/>
<path style="fill:none;stroke-width:90.2008;stroke-linecap:round;stroke-linejoin:round;stroke:rgb(100%,0%,0%);stroke-opacity:1;stroke-miterlimit:10;" d="M 1469.501602 102.478733 L 1469.501602 102.478733 " transform="matrix(0.0998053,0,0,-0.0998053,0,122.880265)"/>
<path style="fill:none;stroke-width:90.2008;stroke-linecap:round;stroke-linejoin:round;stroke:rgb(100%,0%,0%);stroke-opacity:1;stroke-miterlimit:10;" d="M 1811.143307 102.478733 L 1811.143307 102.478733 " transform="matrix(0.0998053,0,0,-0.0998053,0,122.880265)"/>
<path style="fill:none;stroke-width:90.2008;stroke-linecap:round;stroke-linejoin:round;stroke:rgb(100%,0%,0%);stroke-opacity:1;stroke-miterlimit:10;" d="M 2152.824152 102.478733 L 2152.824152 102.478733 " transform="matrix(0.0998053,0,0,-0.0998053,0,122.880265)"/>
<path style="fill:none;stroke-width:90.2008;stroke-linecap:round;stroke-linejoin:round;stroke:rgb(100%,0%,0%);stroke-opacity:1;stroke-miterlimit:10;" d="M 102.778224 444.159578 L 102.778224 444.159578 " transform="matrix(0.0998053,0,0,-0.0998053,0,122.880265)"/>
<path style="fill:none;stroke-width:90.2008;stroke-linecap:round;stroke-linejoin:round;stroke:rgb(100%,0%,0%);stroke-opacity:1;stroke-miterlimit:10;" d="M 444.459069 444.159578 L 444.459069 444.159578 " transform="matrix(0.0998053,0,0,-0.0998053,0,122.880265)"/>
<path style="fill:none;stroke-width:90.2008;stroke-linecap:round;stroke-linejoin:round;stroke:rgb(100%,0%,0%);stroke-opacity:1;stroke-miterlimit:10;" d="M 786.139913 444.159578 L 786.139913 444.159578 " transform="matrix(0.0998053,0,0,-0.0998053,0,122.880265)"/>
<path style="fill:none;stroke-width:90.2008;stroke-linecap:round;stroke-linejoin:round;stroke:rgb(100%,0%,0%);stroke-opacity:1;stroke-miterlimit:10;" d="M 1127.820757 444.159578 L 1127.820757 444.159578 " transform="matrix(0.0998053,0,0,-0.0998053,0,122.880265)"/>
<path style="fill:none;stroke-width:90.2008;stroke-linecap:round;stroke-linejoin:round;stroke:rgb(100%,0%,0%);stroke-opacity:1;stroke-miterlimit:10;" d="M 1469.501602 444.159578 L 1469.501602 444.159578 " transform="matrix(0.0998053,0,0,-0.0998053,0,122.880265)"/>
<path style="fill:none;stroke-width:90.2008;stroke-linecap:round;stroke-linejoin:round;stroke:rgb(100%,0%,0%);stroke-opacity:1;stroke-miterlimit:10;" d="M 1811.143307 444.159578 L 1811.143307 444.159578 " transform="matrix(0.0998053,0,0,-0.0998053,0,122.880265)"/>
<path style="fill:none;stroke-width:90.2008;stroke-linecap:round;stroke-linejoin:round;stroke:rgb(100%,0%,0%);stroke-opacity:1;stroke-miterlimit:10;" d="M 2152.824152 444.159578 L 2152.824152 444.159578 " transform="matrix(0.0998053,0,0,-0.0998053,0,122.880265)"/>
<path style="fill:none;stroke-width:90.2008;stroke-linecap:round;stroke-linejoin:round;stroke:rgb(100%,0%,0%);stroke-opacity:1;stroke-miterlimit:10;" d="M 102.778224 785.840422 L 102.778224 785.840422 " transform="matrix(0.0998053,0,0,-0.0998053,0,122.880265)"/>
<path style="fill:none;stroke-width:90.2008;stroke-linecap:round;stroke-linejoin:round;stroke:rgb(100%,0%,0%);stroke-opacity:1;stroke-miterlimit:10;" d="M 444.459069 785.840422 L 444.459069 785.840422 " transform="matrix(0.0998053,0,0,-0.0998053,0,122.880265)"/>
<path style="fill:none;stroke-width:90.2008;stroke-linecap:round;stroke-linejoin:round;stroke:rgb(100%,0%,0%);stroke-opacity:1;stroke-miterlimit:10;" d="M 786.139913 785.840422 L 786.139913 785.840422 " transform="matrix(0.0998053,0,0,-0.0998053,0,122.880265)"/>
<path style="fill:none;stroke-width:90.2008;stroke-linecap:round;stroke-linejoin:round;stroke:rgb(100%,0%,0%);stroke-opacity:1;stroke-miterlimit:10;" d="M 1127.820757 785.840422 L 1127.820757 785.840422 " transform="matrix(0.0998053,0,0,-0.0998053,0,122.880265)"/>
<path style="fill:none;stroke-width:90.2008;stroke-linecap:round;stroke-linejoin:round;stroke:rgb(100%,0%,0%);stroke-opacity:1;stroke-miterlimit:10;" d="M 1469.501602 785.840422 L 1469.501602 785.840422 " transform="matrix(0.0998053,0,0,-0.0998053,0,122.880265)"/>
<path style="fill:none;stroke-width:90.2008;stroke-linecap:round;stroke-linejoin:round;stroke:rgb(100%,0%,0%);stroke-opacity:1;stroke-miterlimit:10;" d="M 1811.143307 785.840422 L 1811.143307 785.840422 " transform="matrix(0.0998053,0,0,-0.0998053,0,122.880265)"/>
<path style="fill:none;stroke-width:90.2008;stroke-linecap:round;stroke-linejoin:round;stroke:rgb(100%,0%,0%);stroke-opacity:1;stroke-miterlimit:10;" d="M 2152.824152 785.840422 L 2152.824152 785.840422 " transform="matrix(0.0998053,0,0,-0.0998053,0,122.880265)"/>
<path style="fill:none;stroke-width:90.2008;stroke-linecap:round;stroke-linejoin:round;stroke:rgb(100%,0%,0%);stroke-opacity:1;stroke-miterlimit:10;" d="M 102.778224 1127.521267 L 102.778224 1127.521267 " transform="matrix(0.0998053,0,0,-0.0998053,0,122.880265)"/>
<path style="fill:none;stroke-width:90.2008;stroke-linecap:round;stroke-linejoin:round;stroke:rgb(100%,0%,0%);stroke-opacity:1;stroke-miterlimit:10;" d="M 444.459069 1127.521267 L 444.459069 1127.521267 " transform="matrix(0.0998053,0,0,-0.0998053,0,122.880265)"/>
<path style="fill:none;stroke-width:90.2008;stroke-linecap:round;stroke-linejoin:round;stroke:rgb(100%,0%,0%);stroke-opacity:1;stroke-miterlimit:10;" d="M 786.139913 1127.521267 L 786.139913 1127.521267 " transform="matrix(0.0998053,0,0,-0.0998053,0,122.880265)"/>
<path style="fill:none;stroke-width:90.2008;stroke-linecap:round;stroke-linejoin:round;stroke:rgb(100%,0%,0%);stroke-opacity:1;stroke-miterlimit:10;" d="M 1127.820757 1127.521267 L 1127.820757 1127.521267 " transform="matrix(0.0998053,0,0,-0.0998053,0,122.880265)"/>
<path style="fill:none;stroke-width:90.2008;stroke-linecap:round;stroke-linejoin:round;stroke:rgb(100%,0%,0%);stroke-opacity:1;stroke-miterlimit:10;" d="M 1469.501602 1127.521267 L 1469.501602 1127.521267 " transform="matrix(0.0998053,0,0,-0.0998053,0,122.880265)"/>
<path style="fill:none;stroke-width:90.2008;stroke-linecap:round;stroke-linejoin:round;stroke:rgb(100%,0%,0%);stroke-opacity:1;stroke-miterlimit:10;" d="M 1811.143307 1127.521267 L 1811.143307 1127.521267 " transform="matrix(0.0998053,0,0,-0.0998053,0,122.880265)"/>
<path style="fill:none;stroke-width:90.2008;stroke-linecap:round;stroke-linejoin:round;stroke:rgb(100%,0%,0%);stroke-opacity:1;stroke-miterlimit:10;" d="M 2152.824152 1127.521267 L 2152.824152 1127.521267 " transform="matrix(0.0998053,0,0,-0.0998053,0,122.880265)"/>
</g>
</svg>
